#!OML:ASF E:\emotionWalksFemale\Project 1\Capture day 1\Session 1\Female1.ASF
:FULLY-SPECIFIED
:DEGREES
219
root 9.0627 13.1535 21.7505 208.961 -2.36043 -177.012
lowerback 27.2033 1.11759 0.933452
upperback -0.221043 1.61739 0.810083
thorax -15.583 0.566795 -0.200942
lowerneck -11.8832 -1.92689 -5.86631
upperneck -19.021 -4.10917 5.83817
head -3.59604 -3.07847 2.84682
rclavicle -1.03865e-014 8.54774e-015
rhumerus 68.0334 -3.26154 -46.4441
rradius 45.008
rwrist 20.6184
rhand 2.07812 -57.0108
rfingers 7.12502
rthumb 27.5793 -85.0101
lclavicle -1.03865e-014 8.54774e-015
lhumerus 67.9692 7.53278 55.3688
lradius 44.1877
lwrist 6.78949
lhand -13.655 -52.4791
lfingers 7.12502
lthumb 12.4617 -22.8707
rfemur -63.9401 4.34345 26.6709
rtibia 80.2093
rfoot -30.7309 -24.4156
rtoes -2.34305
lfemur -68.2335 -1.12209 -19.6573
ltibia 81.8219
lfoot -35.5907 2.62997
ltoes -34.9162
220
root 9.05439 13.3008 21.6223 208.504 -2.46757 -176.968
lowerback 26.7716 1.14176 1.01369
upperback -0.454297 1.70885 0.842427
thorax -15.6211 0.615092 -0.243434
lowerneck -11.4462 -1.8731 -6.06177
upperneck -19.4651 -4.07697 5.757
head -3.80073 -3.06027 2.87709
rclavicle -1.19271e-015 4.96962e-016
rhumerus 69.5627 -5.01086 -45.7022
rradius 47.3594
rwrist 19.1882
rhand 1.86783 -56.7577
rfingers 7.12502
rthumb 27.3782 -84.7889
lclavicle -1.19271e-015 4.96962e-016
lhumerus 68.0102 8.72707 53.8638
lradius 48.0175
lwrist 8.02197
lhand -14.1885 -53.5274
lfingers 7.12502
lthumb 11.9473 -23.8883
rfemur -61.8916 4.06119 26.7941
rtibia 78.3168
rfoot -29.6771 -24.0378
rtoes -2.09952
lfemur -66.1857 -1.16226 -19.5324
ltibia 80.0612
lfoot -34.8386 2.51743
ltoes -35.3196
221
root 9.03104 13.4871 21.4656 207.218 -3.01055 -177.221
lowerback 26.7374 0.97765 1.41449
upperback -0.224354 1.59357 0.873918
thorax -15.3128 0.527709 -0.388413
lowerneck -11.0906 -1.8745 -6.48235
upperneck -20.0919 -4.12965 5.77841
head -4.04032 -3.09051 2.98177
rclavicle -2.98177e-016 -3.37934e-015
rhumerus 71.2448 -6.98826 -44.9404
rradius 49.6758
rwrist 17.4347
rhand 1.84667 -55.7466
rfingers 7.12502
rthumb 27.3579 -83.7811
lclavicle -2.98177e-016 -3.37934e-015
lhumerus 70.8197 10.4032 52.7964
lradius 49.5639
lwrist 10.1625
lhand -13.499 -53.5631
lfingers 7.12502
lthumb 12.6122 -23.9639
rfemur -58.5279 3.03946 26.83
rtibia 76.1363
rfoot -28.9487 -23.4123
rtoes -1.121
lfemur -62.792 -1.73954 -19.5889
ltibia 77.9076
lfoot -34.0413 2.46019
ltoes -36.1556
222
root 9.01669 13.6633 21.3177 206.608 -2.6756 -177.029
lowerback 26.4151 1.22668 1.26469
upperback -0.405723 1.90055 0.906286
thorax -15.3527 0.685897 -0.381698
lowerneck -11.2123 -1.91231 -6.68856
upperneck -20.0752 -4.18233 5.70983
head -4.01408 -3.09904 2.99141
rclavicle -2.0276e-014 6.4605e-015
rhumerus 72.6716 -8.57338 -44.4344
rradius 51.9662
rwrist 15.6669
rhand 1.69485 -55.1196
rfingers 7.12502
rthumb 27.2127 -83.1768
lclavicle -2.0276e-014 6.4605e-015
lhumerus 73.1988 12.2693 51.1814
lradius 50.7822
lwrist 13.191
lhand -12.4186 -53.8587
lfingers 7.12502
lthumb 13.6536 -24.3266
rfemur -56.0837 3.03489 26.8559
rtibia 73.8226
rfoot -27.6473 -22.6666
rtoes -1.01913
lfemur -60.2949 -1.24016 -19.6378
ltibia 75.779
lfoot -32.9939 2.11067
ltoes -36.7159
223
root 9.00485 13.8478 21.1623 205.745 -2.77436 -176.863
lowerback 26.3436 1.31239 1.3384
upperback -0.577359 2.06393 0.963766
thorax -15.5181 0.759487 -0.42194
lowerneck -11.4364 -1.81766 -6.46587
upperneck -19.8772 -4.10052 5.3144
head -3.94044 -3.04516 2.82055
rclavicle 2.57426e-014 7.15625e-015
rhumerus 73.9397 -9.98857 -44.2301
rradius 54.1121
rwrist 14.5909
rhand 0.938427 -53.8738
rfingers 7.12502
rthumb 26.4889 -82.0423
lclavicle 2.57426e-014 7.15625e-015
lhumerus 74.7167 13.576 50.9829
lradius 52.9377
lwrist 14.9069
lhand -11.3464 -54.6343
lfingers 7.12502
lthumb 14.6868 -25.1745
rfemur -53.275 2.56867 27.1065
rtibia 71.3307
rfoot -26.0515 -22.0214
rtoes -1.40704
lfemur -57.5378 -1.05124 -19.5411
ltibia 73.4536
lfoot -31.5658 1.96259
ltoes -37.4898
224
root 8.99327 14.0356 20.9901 204.868 -2.78865 -176.753
lowerback 26.0741 1.42584 1.41975
upperback -0.821097 2.26535 0.960189
thorax -15.6548 0.850393 -0.549917
lowerneck -11.271 -1.75478 -6.33202
upperneck -19.6284 -4.0103 4.95104
head -3.90599 -2.95894 2.67971
rclavicle -2.98177e-014 -4.57205e-015
rhumerus 74.76 -11.2152 -44.219
rradius 56.2314
rwrist 14.2808
rhand 0.191823 -52.0059
rfingers 7.12502
rthumb 25.7741 -80.2801
lclavicle -2.98177e-014 -4.57205e-015
lhumerus 75.102 14.8752 49.6235
lradius 55.378
lwrist 16.6069
lhand -11.4431 -54.9696
lfingers 7.12502
lthumb 14.5936 -25.5031
rfemur -50.3652 1.9668 27.3412
rtibia 68.745
rfoot -23.9318 -21.5837
rtoes -2.83994
lfemur -54.5403 -0.891832 -19.5039
ltibia 71.0176
lfoot -30.0619 2.1132
ltoes -38.7747
225
root 8.97473 14.2282 20.8084 203.876 -2.78091 -176.698
lowerback 25.7508 1.43653 1.51256
upperback -1.00293 2.31795 0.899466
thorax -15.6832 0.871108 -0.690737
lowerneck -10.8966 -1.61781 -6.14707
upperneck -19.4605 -3.81299 4.69119
head -3.92977 -2.82642 2.56975
rclavicle -7.95139e-016 -3.57812e-015
rhumerus 75.603 -12.1472 -44.7869
rradius 58.2234
rwrist 14.3216
rhand -0.223384 -49.7196
rfingers 7.12502
rthumb 25.3764 -78.0509
lclavicle -7.95139e-016 -3.57812e-015
lhumerus 76.3164 15.9428 49.0287
lradius 56.5679
lwrist 15.8391
lhand -13.0867 -55.5188
lfingers 7.12502
lthumb 13.0096 -25.9445
rfemur -47.2673 1.17527 27.4975
rtibia 66.014
rfoot -21.6413 -20.9483
rtoes -4.51629
lfemur -51.2932 -0.850653 -19.4824
ltibia 68.4331
lfoot -28.5672 1.87705
ltoes -39.075
226
root 8.95094 14.4252 20.6239 202.661 -2.84717 -176.61
lowerback 25.4236 1.3172 1.51897
upperback -0.929749 2.1428 0.834561
thorax -15.4064 0.794577 -0.694654
lowerneck -11.0869 -1.21855 -5.37238
upperneck -18.7735 -3.37714 4.08825
head -4.21306 -2.6043 2.41992
rclavicle -2.07233e-014 3.97569e-016
rhumerus 77.0473 -12.6725 -45.9669
rradius 59.7053
rwrist 14.5947
rhand -0.665499 -47.5307
rfingers 7.12502
rthumb 24.9528 -75.9215
lclavicle -2.07233e-014 3.97569e-016
lhumerus 77.9172 17.5184 48.9343
lradius 57.3267
lwrist 15.5884
lhand -12.866 -56.146
lfingers 7.12502
lthumb 13.2223 -26.5853
rfemur -43.8899 0.173419 27.6608
rtibia 63.1401
rfoot -19.3267 -19.9183
rtoes -4.7208
lfemur -47.8574 -0.859416 -19.4041
ltibia 65.7611
lfoot -26.8119 1.16539
ltoes -37.9528
227
root 8.92831 14.6245 20.4334 201.277 -3.04606 -176.457
lowerback 25.3543 1.37281 1.92633
upperback -1.19076 2.36859 0.856115
thorax -15.663 0.865044 -0.99219
lowerneck -10.0766 -1.26974 -5.43364
upperneck -18.4545 -3.32265 3.9139
head -4.27403 -2.48638 2.3787
rclavicle 7.95139e-016 5.66536e-015
rhumerus 77.1952 -13.2927 -45.6121
rradius 60.9601
rwrist 14.3196
rhand -1.26452 -45.8724
rfingers 7.12502
rthumb 24.3786 -74.3417
lclavicle 7.95139e-016 5.66536e-015
lhumerus 78.6604 17.8025 49.3873
lradius 58.2779
lwrist 14.8319
lhand -13.3253 -57.2708
lfingers 7.12502
lthumb 12.7796 -27.6819
rfemur -40.2491 -1.00835 27.9174
rtibia 60.1422
rfoot -16.8888 -18.7888
rtoes -4.29442
lfemur -44.2434 -0.874114 -19.2235
ltibia 63.0034
lfoot -24.7659 0.625433
ltoes -37.9662
228
root 8.90643 14.8259 20.2385 199.931 -3.27513 -176.211
lowerback 25.1566 1.40406 2.38998
upperback -1.42823 2.57051 0.854346
thorax -15.8116 0.918657 -1.33601
lowerneck -9.36358 -1.26354 -5.27458
upperneck -17.7985 -3.16333 3.75468
head -4.16303 -2.32302 2.2834
rclavicle -1.2921e-015 5.96354e-016
rhumerus 76.9076 -14.043 -44.7705
rradius 62.2192
rwrist 13.4794
rhand -2.27404 -44.9323
rfingers 7.12502
rthumb 23.4105 -73.5283
lclavicle -1.2921e-015 5.96354e-016
lhumerus 79.3131 18.0219 49.4183
lradius 58.7572
lwrist 14.0896
lhand -13.2817 -58.078
lfingers 7.12502
lthumb 12.8217 -28.4918
rfemur -36.6245 -2.22504 28.245
rtibia 57.0055
rfoot -14.471 -17.7596
rtoes -3.07158
lfemur -40.6309 -0.924955 -18.8991
ltibia 60.1292
lfoot -22.6011 0.0827629
ltoes -38.0762
229
root 8.88057 15.0259 20.0363 198.595 -3.45409 -176.053
lowerback 24.5709 1.44654 2.74648
upperback -1.66246 2.73835 0.810336
thorax -15.7314 0.971202 -1.64169
lowerneck -8.55493 -1.19977 -4.95933
upperneck -16.8313 -2.89151 3.51648
head -3.96312 -2.09036 2.12491
rclavicle -3.67752e-015 -2.42517e-014
rhumerus 76.4135 -14.4437 -43.914
rradius 63.2057
rwrist 12.5424
rhand -3.47668 -44.4645
rfingers 7.12502
rthumb 22.2564 -73.2029
lclavicle -3.67752e-015 -2.42517e-014
lhumerus 79.5312 17.9077 49.2576
lradius 59.1565
lwrist 13.3842
lhand -13.1884 -58.7015
lfingers 7.12502
lthumb 12.9116 -29.1209
rfemur -32.9939 -3.52309 28.3681
rtibia 53.7231
rfoot -11.9895 -16.7263
rtoes -0.693557
lfemur -36.9109 -1.0461 -18.6876
ltibia 57.0697
lfoot -20.3374 -0.736271
ltoes -36.2087
230
root 8.85256 15.2322 19.8298 197.244 -3.72105 -176.017
lowerback 23.7476 1.50923 3.04572
upperback -1.87484 2.90409 0.783613
thorax -15.485 1.03399 -1.88157
lowerneck -7.47108 -1.1958 -4.68397
upperneck -15.7004 -2.67555 3.2578
head -3.75536 -1.87004 1.96974
rclavicle -9.19379e-015 -6.16232e-015
rhumerus 75.7562 -14.8717 -42.7949
rradius 63.7989
rwrist 11.7575
rhand -4.41715 -43.792
rfingers 7.12502
rthumb 21.3533 -72.6354
lclavicle -9.19379e-015 -6.16232e-015
lhumerus 79.443 17.4083 49.2943
lradius 59.5214
lwrist 12.6261
lhand -13.729 -59.464
lfingers 7.12502
lthumb 12.3904 -29.8512
rfemur -29.2393 -4.96019 28.2712
rtibia 50.207
rfoot -8.72931 -15.4915
rtoes 0.86247
lfemur -33.0869 -1.29972 -18.6156
ltibia 53.7449
lfoot -17.5933 -1.1554
ltoes -35.9616
231
root 8.82559 15.4556 19.6149 195.952 -4.07269 -175.931
lowerback 23.1958 1.4394 3.41276
upperback -2.40524 2.93359 0.682528
thorax -15.7791 1.01221 -2.21215
lowerneck -6.59181 -1.11289 -4.23626
upperneck -13.7522 -2.26027 3.20276
head -3.2349 -1.54001 1.829
rclavicle -2.25621e-014 2.5842e-015
rhumerus 74.559 -14.7403 -41.6632
rradius 64.2095
rwrist 11.5786
rhand -4.93094 -43.1684
rfingers 7.12502
rthumb 20.8598 -72.067
lclavicle -2.25621e-014 2.5842e-015
lhumerus 78.5783 16.4414 48.8674
lradius 59.8049
lwrist 12.0863
lhand -14.3853 -60.1465
lfingers 7.12502
lthumb 11.7576 -30.4965
rfemur -25.3972 -6.41171 28.142
rtibia 46.3678
rfoot -4.86753 -14.1175
rtoes 1.00248
lfemur -29.2451 -1.65897 -18.4663
ltibia 50.1315
lfoot -14.1084 -1.47914
ltoes -36.2131
232
root 8.79815 15.6952 19.3864 194.748 -4.42915 -175.845
lowerback 22.0869 1.53972 3.79659
upperback -2.73163 3.15207 0.642442
thorax -15.4819 1.09139 -2.51752
lowerneck -6.55087 -1.16808 -4.05283
upperneck -11.0987 -2.0282 3.11738
head -2.3415 -1.29479 1.70608
rclavicle -1.67973e-014 1.19271e-014
rhumerus 72.9494 -14.6841 -40.0893
rradius 64.7691
rwrist 12.315
rhand -5.41686 -43.0807
rfingers 7.12502
rthumb 20.3928 -72.0299
lclavicle -1.67973e-014 1.19271e-014
lhumerus 77.6995 15.2274 48.7767
lradius 60.2315
lwrist 12.1771
lhand -14.4021 -60.6324
lfingers 7.12502
lthumb 11.7414 -30.9815
rfemur -21.4942 -7.57392 27.885
rtibia 42.1865
rfoot -0.824354 -12.9929
rtoes -0.442117
lfemur -25.352 -2.14268 -18.307
ltibia 46.2145
lfoot -10.0924 -1.96284
ltoes -33.5403
233
root 8.77012 15.944 19.1536 193.506 -4.8156 -175.802
lowerback 20.8117 1.74117 4.20735
upperback -3.32562 3.47882 0.357271
thorax -15.3722 1.19687 -3.14671
lowerneck -4.45454 -1.21003 -2.85125
upperneck -9.16353 -1.90758 2.67043
head -2.07263 -1.14148 1.34424
rclavicle -3.48619e-014 5.66536e-015
rhumerus 71.0075 -12.0382 -40.6749
rradius 64.6738
rwrist 16.2842
rhand -6.4879 -42.8476
rfingers 7.12502
rthumb 19.3633 -71.9035
lclavicle -3.48619e-014 5.66536e-015
lhumerus 75.9294 13.0728 48.192
lradius 61.1944
lwrist 12.82
lhand -14.4716 -61.337
lfingers 7.12502
lthumb 11.6744 -31.6823
rfemur -17.442 -8.03525 27.4437
rtibia 37.7153
rfoot 3.88877 -12.4959
rtoes 0.291459
lfemur -21.3779 -2.89971 -18.2027
ltibia 42.0259
lfoot -5.76002 -1.83546
ltoes -31.384
